<svg width="1036" height="320" viewBox="0 0 1036 320" fill="none" xmlns="http://www.w3.org/2000/svg">
<path d="M7.73091 110.197C-5.66546 160.272 -0.451002 196.11 14.1799 226.998C9.93005 208.586 8.01968 198.501 8.40984 182.438C8.72051 159.247 11.5663 142.604 13.8406 136.19C26.2295 101.251 33.7359 88.465 37.9396 83.8659C62.3226 50.9837 79.3401 40.0082 112.103 25.8028C146.114 13.1118 166.128 12.5643 202.559 16.6883C232.116 21.2563 248.513 27.0743 277.062 50.4459C263.788 36.8144 255.129 29.4402 233.277 17.701C204.935 2.47561 184.867 -0.789042 148.591 0.147113C128.565 0.663913 93.4351 11.1626 72.8999 26.1404C37.4213 52.0176 23.1095 70.3585 7.73091 110.197Z" fill="url(#paint0_linear_193_8)"/>
<path d="M273.498 273.583C293.541 252.994 302.562 239.86 313.381 212.651C315.56 206.751 317.938 196.353 318.133 195.492C317.732 197.139 311.599 214.812 305.234 224.973C299.989 233.347 294.033 242.189 291.657 245.396C289.282 248.602 271.358 268.832 253.982 280.841C245.012 287.04 233.241 292.542 204.765 301.265C185.345 307.213 162.518 307.817 136.202 303.121C120.08 300.244 103.949 293.278 87.3255 282.36C69.8582 270.124 61.0378 262.214 48.1222 245.058C35.3518 226.779 30.5903 215.834 24.5324 195.603C17.7822 170.382 16.6975 155.964 20.9685 129.607C24.6581 109.44 28.2479 99.3203 37.9396 83.8659C33.7359 88.465 26.2295 101.251 13.8406 136.19C11.5663 142.604 8.72051 159.247 8.40984 182.438C8.01968 198.501 9.93005 208.586 14.1799 226.998C23.9374 247.598 33.6437 259.974 57.7956 283.373C69.9911 295.188 94.2836 306.783 119.57 314.43C136.969 319.691 144.944 319.628 159.453 320C181.854 320 206.123 314.265 221.567 307.678C241.868 299.02 260.6 286.834 273.498 273.583Z" fill="url(#paint1_linear_193_8)" fill-opacity="0.76"/>
<path d="M51.3466 110.197C72.9 67.4934 109.07 40.3189 148.761 30.5292C167.923 25.8028 188.813 23.5753 201.202 25.1277C222.755 27.8283 251.945 32.2168 277.062 50.4459C248.513 27.0743 232.116 21.2563 202.559 16.6883C166.128 12.5643 146.114 13.1118 112.103 25.8028C79.3401 40.0082 62.3226 50.9837 37.9396 83.8659C28.2479 99.3203 24.6581 109.44 20.9685 129.607C16.6975 155.964 17.7822 170.382 24.5324 195.603C30.5903 215.834 35.3518 226.779 48.1222 245.058C61.0378 262.214 69.8582 270.124 87.3255 282.36C103.949 293.278 120.08 300.244 136.202 303.121C162.518 307.817 185.345 307.213 204.765 301.265C233.241 292.542 245.012 287.04 253.982 280.841C271.358 268.832 289.282 248.602 291.657 245.396C294.033 242.189 299.989 233.347 305.234 224.973C311.599 214.812 317.732 197.139 318.133 195.492C318.139 195.47 318.143 195.451 318.146 195.435C318.146 195.435 320.044 174.968 319.999 160.496C315.247 188.154 312.224 203.681 291.657 232.23C269.743 262.987 253.642 271.92 222.925 287.593C192.207 303.266 144.348 298.058 119.57 285.905C94.7926 273.752 77.4822 259.068 57.7956 226.998C42.1823 195.435 32.8482 155.094 51.3466 110.197Z" fill="url(#paint2_linear_193_8)" fill-opacity="0.75"/>
<path d="M92.9265 268.014C114.06 258.341 135.027 244.57 174.557 218.052L179.352 221.403C222.107 251.288 247.52 269.052 250.758 270.545C252.115 257.886 233.108 205.731 225.471 182.607L295.731 128.089C294.576 126.496 278.776 126.752 252.625 126.738H209.179L214.609 141.76H254.152L221.228 168.598L206.293 126.738H142.482C137.072 142.099 134.332 150.383 129.245 164.884L141.124 173.324C145.772 160.109 151.646 143.786 153.174 142.604H196.79C206.809 173.768 216.321 200.984 229.544 240.164C228.397 242.147 210.472 227.291 191.698 212.989C192.85 207.421 198.226 202.52 211.045 192.566L205.784 178.219L119.232 237.463C122.835 224.219 127.707 214.128 134.675 193.578L122.965 185.308C108.793 220.925 94.6232 258.8 92.9265 268.014Z" fill="url(#paint3_linear_193_8)"/>
<path d="M170.824 198.979L158.944 207.756C106.164 169.41 82.2112 151.206 53.2141 126.738H140.276L134.675 140.748C114.078 140.676 99.5452 139.566 96.3207 141.592C91.9082 144.967 170.824 197.292 170.824 198.979Z" fill="url(#paint4_linear_193_8)"/>
<path d="M144.349 123.869H158.774C166.608 103.995 170.567 93.7677 175.915 79.1401C181.738 97.0318 185.172 106.719 191.359 123.869H205.275C187.842 73.5571 180.701 51.4102 176.424 43.0195C171.868 51.5379 165.044 69.4281 144.349 123.869Z" fill="url(#paint5_linear_193_8)"/>
<mask id="path-3-outside-1_193_8" maskUnits="userSpaceOnUse" x="359" y="86" width="658" height="163" fill="black">
<rect fill="white" x="359" y="86" width="658" height="163"/>
<path d="M394.737 97.125C401.317 93.6783 407.427 91.485 413.067 90.545C418.707 89.4483 425.992 88.9 434.922 88.9C443.852 88.9 454.819 91.015 467.822 95.245L464.062 107.7C449.962 104.88 439.466 103.47 432.572 103.47C425.836 103.47 420.039 103.862 415.182 104.645C410.326 105.272 405.312 106.838 400.142 109.345C395.129 111.852 391.134 115.377 388.157 119.92C381.421 130.26 378.052 146.083 378.052 167.39C378.052 193.553 382.752 211.1 392.152 220.03C396.696 224.26 401.396 227.237 406.252 228.96C411.109 230.527 416.436 231.31 422.232 231.31C428.186 231.31 432.572 231.153 435.392 230.84C444.479 230.213 453.487 227.237 462.417 221.91L467.822 234.6C456.542 242.277 441.816 246.115 423.642 246.115C416.592 246.115 410.482 245.645 405.312 244.705C400.142 243.922 394.659 242.042 388.862 239.065C383.066 235.932 378.287 231.623 374.527 226.14C370.924 220.657 367.869 212.98 365.362 203.11C362.856 193.24 361.602 181.647 361.602 168.33C361.602 154.857 363.169 143.185 366.302 133.315C369.436 123.445 373.274 115.768 377.817 110.285C382.517 104.802 388.157 100.415 394.737 97.125ZM551.726 88.665C575.383 88.665 591.755 94.1483 600.841 105.115C610.085 116.082 614.706 136.605 614.706 166.685C614.706 181.882 612.905 194.885 609.301 205.695C605.698 216.505 600.685 224.73 594.261 230.37C582.511 240.867 568.333 246.115 551.726 246.115C529.01 246.115 513.735 241.963 505.901 233.66C497.911 225.043 492.741 213.137 490.391 197.94C489.138 189.167 488.511 178.278 488.511 165.275C488.511 152.115 490.47 140.208 494.386 129.555C498.303 118.902 503.473 110.755 509.896 105.115C522.43 94.1483 536.373 88.665 551.726 88.665ZM547.261 103.235C533.005 103.235 522.351 108.248 515.301 118.275C508.408 128.145 504.961 144.36 504.961 166.92C504.961 188.227 507.625 204.05 512.951 214.39C517.338 223.007 525.328 228.333 536.921 230.37C541.621 231.31 547.653 231.78 555.016 231.78C569.743 231.78 580.631 226.688 587.681 216.505C594.731 206.322 598.256 189.715 598.256 166.685C598.256 148.825 596.533 135.273 593.086 126.03C591.05 120.547 588.151 116.238 584.391 113.105C576.558 106.525 564.181 103.235 547.261 103.235ZM684.375 244L634.32 91.72H651.945L694.01 224.965L736.78 91.72H753.7L703.88 244H684.375ZM869.819 244H783.339V91.72H867.234L865.589 104.88H799.084V158.695H857.834V171.855H798.849V230.84H869.819V244ZM999.031 91.72H1014.54V244H997.386L917.016 115.455L917.956 137.545V244H902.446V91.72H919.366L999.736 219.795L999.031 197.235V91.72Z"/>
</mask>
<path d="M394.737 97.125C401.317 93.6783 407.427 91.485 413.067 90.545C418.707 89.4483 425.992 88.9 434.922 88.9C443.852 88.9 454.819 91.015 467.822 95.245L464.062 107.7C449.962 104.88 439.466 103.47 432.572 103.47C425.836 103.47 420.039 103.862 415.182 104.645C410.326 105.272 405.312 106.838 400.142 109.345C395.129 111.852 391.134 115.377 388.157 119.92C381.421 130.26 378.052 146.083 378.052 167.39C378.052 193.553 382.752 211.1 392.152 220.03C396.696 224.26 401.396 227.237 406.252 228.96C411.109 230.527 416.436 231.31 422.232 231.31C428.186 231.31 432.572 231.153 435.392 230.84C444.479 230.213 453.487 227.237 462.417 221.91L467.822 234.6C456.542 242.277 441.816 246.115 423.642 246.115C416.592 246.115 410.482 245.645 405.312 244.705C400.142 243.922 394.659 242.042 388.862 239.065C383.066 235.932 378.287 231.623 374.527 226.14C370.924 220.657 367.869 212.98 365.362 203.11C362.856 193.24 361.602 181.647 361.602 168.33C361.602 154.857 363.169 143.185 366.302 133.315C369.436 123.445 373.274 115.768 377.817 110.285C382.517 104.802 388.157 100.415 394.737 97.125ZM551.726 88.665C575.383 88.665 591.755 94.1483 600.841 105.115C610.085 116.082 614.706 136.605 614.706 166.685C614.706 181.882 612.905 194.885 609.301 205.695C605.698 216.505 600.685 224.73 594.261 230.37C582.511 240.867 568.333 246.115 551.726 246.115C529.01 246.115 513.735 241.963 505.901 233.66C497.911 225.043 492.741 213.137 490.391 197.94C489.138 189.167 488.511 178.278 488.511 165.275C488.511 152.115 490.47 140.208 494.386 129.555C498.303 118.902 503.473 110.755 509.896 105.115C522.43 94.1483 536.373 88.665 551.726 88.665ZM547.261 103.235C533.005 103.235 522.351 108.248 515.301 118.275C508.408 128.145 504.961 144.36 504.961 166.92C504.961 188.227 507.625 204.05 512.951 214.39C517.338 223.007 525.328 228.333 536.921 230.37C541.621 231.31 547.653 231.78 555.016 231.78C569.743 231.78 580.631 226.688 587.681 216.505C594.731 206.322 598.256 189.715 598.256 166.685C598.256 148.825 596.533 135.273 593.086 126.03C591.05 120.547 588.151 116.238 584.391 113.105C576.558 106.525 564.181 103.235 547.261 103.235ZM684.375 244L634.32 91.72H651.945L694.01 224.965L736.78 91.72H753.7L703.88 244H684.375ZM869.819 244H783.339V91.72H867.234L865.589 104.88H799.084V158.695H857.834V171.855H798.849V230.84H869.819V244ZM999.031 91.72H1014.54V244H997.386L917.016 115.455L917.956 137.545V244H902.446V91.72H919.366L999.736 219.795L999.031 197.235V91.72Z" fill="url(#paint6_linear_193_8)"/>
<path d="M394.737 97.125L395.632 98.9139L395.649 98.9054L395.665 98.8967L394.737 97.125ZM413.067 90.545L413.396 92.5178L413.423 92.5134L413.449 92.5082L413.067 90.545ZM467.822 95.245L469.737 95.823L470.303 93.9487L468.441 93.3431L467.822 95.245ZM464.062 107.7L463.67 109.661L465.452 110.018L465.977 108.278L464.062 107.7ZM415.182 104.645L415.438 106.629L415.47 106.625L415.501 106.619L415.182 104.645ZM400.142 109.345L399.27 107.545L399.259 107.551L399.248 107.556L400.142 109.345ZM388.157 119.92L386.484 118.824L386.482 118.828L388.157 119.92ZM392.152 220.03L390.775 221.48L390.782 221.487L390.789 221.494L392.152 220.03ZM406.252 228.96L405.583 230.845L405.611 230.855L405.638 230.863L406.252 228.96ZM435.392 230.84L435.255 228.845L435.213 228.848L435.171 228.852L435.392 230.84ZM462.417 221.91L464.257 221.126L463.36 219.019L461.393 220.192L462.417 221.91ZM467.822 234.6L468.947 236.253L470.306 235.329L469.662 233.816L467.822 234.6ZM405.312 244.705L405.67 242.737L405.641 242.732L405.612 242.728L405.312 244.705ZM388.862 239.065L387.911 240.824L387.93 240.834L387.949 240.844L388.862 239.065ZM374.527 226.14L372.856 227.238L372.867 227.255L372.878 227.271L374.527 226.14ZM365.362 203.11L363.424 203.602L363.424 203.602L365.362 203.11ZM366.302 133.315L368.208 133.92L368.208 133.92L366.302 133.315ZM377.817 110.285L376.299 108.983L376.288 108.996L376.277 109.009L377.817 110.285ZM395.665 98.8967C402.11 95.5206 408.017 93.4143 413.396 92.5178L412.738 88.5722C406.837 89.5557 400.524 91.8361 393.809 95.3533L395.665 98.8967ZM413.449 92.5082C418.914 91.4455 426.058 90.9 434.922 90.9V86.9C425.926 86.9 418.5 87.4511 412.685 88.5818L413.449 92.5082ZM434.922 90.9C443.562 90.9 454.306 92.9512 467.204 97.1469L468.441 93.3431C455.332 89.0788 444.143 86.9 434.922 86.9V90.9ZM465.908 94.667L462.148 107.122L465.977 108.278L469.737 95.823L465.908 94.667ZM464.454 105.739C450.333 102.915 439.674 101.47 432.572 101.47V105.47C439.257 105.47 449.592 106.845 463.67 109.661L464.454 105.739ZM432.572 101.47C425.765 101.47 419.856 101.865 414.864 102.671L415.501 106.619C420.222 105.858 425.906 105.47 432.572 105.47V101.47ZM414.926 102.661C409.822 103.32 404.601 104.96 399.27 107.545L401.015 111.145C406.023 108.716 410.829 107.223 415.438 106.629L414.926 102.661ZM399.248 107.556C393.929 110.216 389.661 113.975 386.484 118.824L389.83 121.016C392.607 116.778 396.329 113.488 401.037 111.134L399.248 107.556ZM386.482 118.828C379.429 129.652 376.052 145.944 376.052 167.39H380.052C380.052 146.222 383.412 130.868 389.833 121.012L386.482 118.828ZM376.052 167.39C376.052 193.616 380.726 211.934 390.775 221.48L393.53 218.58C384.778 210.266 380.052 193.491 380.052 167.39H376.052ZM390.789 221.494C395.493 225.873 400.422 229.013 405.583 230.845L406.921 227.075C402.369 225.46 397.898 222.647 393.515 218.566L390.789 221.494ZM405.638 230.863C410.718 232.502 416.255 233.31 422.232 233.31V229.31C416.616 229.31 411.5 228.551 406.866 227.057L405.638 230.863ZM422.232 233.31C428.198 233.31 432.677 233.154 435.613 232.828L435.171 228.852C432.468 229.153 428.173 229.31 422.232 229.31V233.31ZM435.53 232.835C444.972 232.184 454.28 229.092 463.442 223.628L461.393 220.192C452.694 225.381 443.986 228.243 435.255 228.845L435.53 232.835ZM460.577 222.694L465.982 235.384L469.662 233.816L464.257 221.126L460.577 222.694ZM466.697 232.947C455.843 240.334 441.545 244.115 423.642 244.115V248.115C442.086 248.115 457.242 244.22 468.947 236.253L466.697 232.947ZM423.642 244.115C416.674 244.115 410.69 243.65 405.67 242.737L404.954 246.673C410.275 247.64 416.51 248.115 423.642 248.115V244.115ZM405.612 242.728C400.701 241.984 395.425 240.187 389.776 237.286L387.949 240.844C393.892 243.896 399.583 245.86 405.013 246.682L405.612 242.728ZM389.813 237.306C384.299 234.325 379.759 230.233 376.177 225.009L372.878 227.271C376.816 233.014 381.833 237.539 387.911 240.824L389.813 237.306ZM376.199 225.042C372.765 219.817 369.779 212.378 367.301 202.618L363.424 203.602C365.958 213.582 369.082 221.496 372.856 227.238L376.199 225.042ZM367.301 202.618C364.845 192.949 363.602 181.528 363.602 168.33H359.602C359.602 181.765 360.866 193.531 363.424 203.602L367.301 202.618ZM363.602 168.33C363.602 155.004 365.153 143.546 368.208 133.92L364.396 132.71C361.185 142.824 359.602 154.71 359.602 168.33H363.602ZM368.208 133.92C371.296 124.193 375.035 116.778 379.357 111.561L376.277 109.009C371.513 114.759 367.575 122.697 364.396 132.71L368.208 133.92ZM379.336 111.587C383.859 106.309 389.286 102.087 395.632 98.9139L393.843 95.3361C387.029 98.7431 381.175 103.294 376.299 108.983L379.336 111.587ZM600.841 105.115L599.301 106.391L599.307 106.398L599.312 106.404L600.841 105.115ZM609.301 205.695L611.199 206.327L611.199 206.327L609.301 205.695ZM594.261 230.37L592.942 228.867L592.935 228.873L592.929 228.878L594.261 230.37ZM505.901 233.66L504.435 235.02L504.441 235.026L504.447 235.032L505.901 233.66ZM490.391 197.94L488.412 198.223L488.413 198.234L488.415 198.246L490.391 197.94ZM494.386 129.555L496.264 130.245L496.264 130.245L494.386 129.555ZM509.896 105.115L508.579 103.61L508.577 103.612L509.896 105.115ZM515.301 118.275L513.665 117.125L513.662 117.13L515.301 118.275ZM512.951 214.39L514.734 213.483L514.729 213.474L512.951 214.39ZM536.921 230.37L537.314 228.409L537.291 228.404L537.267 228.4L536.921 230.37ZM593.086 126.03L591.212 126.726L591.212 126.729L593.086 126.03ZM584.391 113.105L583.105 114.636L583.111 114.641L584.391 113.105ZM551.726 90.665C575.172 90.665 590.786 96.1135 599.301 106.391L602.381 103.839C592.724 92.1831 575.595 86.665 551.726 86.665V90.665ZM599.312 106.404C608.058 116.781 612.706 136.648 612.706 166.685H616.706C616.706 136.562 612.111 115.383 602.371 103.826L599.312 106.404ZM612.706 166.685C612.706 181.734 610.921 194.512 607.404 205.063L611.199 206.327C614.888 195.258 616.706 182.029 616.706 166.685H612.706ZM607.404 205.063C603.877 215.645 599.024 223.526 592.942 228.867L595.581 231.873C602.345 225.934 607.519 217.365 611.199 206.327L607.404 205.063ZM592.929 228.878C581.567 239.029 567.871 244.115 551.726 244.115V248.115C568.796 248.115 583.456 242.704 595.594 231.862L592.929 228.878ZM551.726 244.115C529.082 244.115 514.576 239.941 507.356 232.288L504.447 235.032C512.893 243.986 528.937 248.115 551.726 248.115V244.115ZM507.368 232.3C499.722 224.054 494.676 212.557 492.368 197.634L488.415 198.246C490.807 213.716 496.101 226.033 504.435 235.02L507.368 232.3ZM492.371 197.657C491.136 189.01 490.511 178.223 490.511 165.275H486.511C486.511 178.334 487.14 189.324 488.412 198.223L492.371 197.657ZM490.511 165.275C490.511 152.314 492.44 140.645 496.264 130.245L492.509 128.865C488.499 139.771 486.511 151.916 486.511 165.275H490.511ZM496.264 130.245C500.101 119.806 505.112 111.977 511.216 106.618L508.577 103.612C501.834 109.533 496.505 117.997 492.509 128.865L496.264 130.245ZM511.213 106.62C523.416 95.9433 536.9 90.665 551.726 90.665V86.665C535.846 86.665 521.444 92.3534 508.579 103.61L511.213 106.62ZM547.261 101.235C532.476 101.235 521.155 106.473 513.665 117.125L516.937 119.425C523.548 110.024 533.534 105.235 547.261 105.235V101.235ZM513.662 117.13C506.405 127.521 502.961 144.257 502.961 166.92H506.961C506.961 144.463 510.412 128.769 516.941 119.42L513.662 117.13ZM502.961 166.92C502.961 188.322 505.625 204.535 511.173 215.306L514.729 213.474C509.625 203.565 506.961 188.132 506.961 166.92H502.961ZM511.169 215.297C515.904 224.598 524.513 230.221 536.575 232.34L537.267 228.4C526.143 226.446 518.772 221.416 514.734 213.483L511.169 215.297ZM536.529 232.331C541.408 233.307 547.583 233.78 555.016 233.78V229.78C547.723 229.78 541.835 229.313 537.314 228.409L536.529 232.331ZM555.016 233.78C570.257 233.78 581.828 228.473 589.326 217.643L586.037 215.367C579.435 224.903 569.229 229.78 555.016 229.78V233.78ZM589.326 217.643C596.734 206.943 600.256 189.821 600.256 166.685H596.256C596.256 189.608 592.729 205.7 586.037 215.367L589.326 217.643ZM600.256 166.685C600.256 148.747 598.532 134.911 594.96 125.331L591.212 126.729C594.534 135.636 596.256 148.903 596.256 166.685H600.256ZM594.961 125.334C592.827 119.587 589.748 114.965 585.672 111.569L583.111 114.641C586.555 117.511 589.273 121.506 591.212 126.726L594.961 125.334ZM585.678 111.574C577.314 104.548 564.367 101.235 547.261 101.235V105.235C563.996 105.235 575.802 108.502 583.105 114.636L585.678 111.574ZM684.375 244L682.475 244.625L682.927 246H684.375V244ZM634.32 91.72V89.72H631.557L632.42 92.3445L634.32 91.72ZM651.945 91.72L653.852 91.1179L653.411 89.72H651.945V91.72ZM694.01 224.965L692.103 225.567L693.994 231.558L695.914 225.576L694.01 224.965ZM736.78 91.72V89.72H735.321L734.875 91.1087L736.78 91.72ZM753.7 91.72L755.601 92.3419L756.458 89.72H753.7V91.72ZM703.88 244V246H705.33L705.781 244.622L703.88 244ZM686.275 243.375L636.22 91.0955L632.42 92.3445L682.475 244.625L686.275 243.375ZM634.32 93.72H651.945V89.72H634.32V93.72ZM650.038 92.3221L692.103 225.567L695.917 224.363L653.852 91.1179L650.038 92.3221ZM695.914 225.576L738.684 92.3313L734.875 91.1087L692.105 224.354L695.914 225.576ZM736.78 93.72H753.7V89.72H736.78V93.72ZM751.799 91.0981L701.979 243.378L705.781 244.622L755.601 92.3419L751.799 91.0981ZM703.88 242H684.375V246H703.88V242ZM869.819 244V246H871.819V244H869.819ZM783.339 244H781.339V246H783.339V244ZM783.339 91.72V89.72H781.339V91.72H783.339ZM867.234 91.72L869.219 91.9681L869.5 89.72H867.234V91.72ZM865.589 104.88V106.88H867.355L867.574 105.128L865.589 104.88ZM799.084 104.88V102.88H797.084V104.88H799.084ZM799.084 158.695H797.084V160.695H799.084V158.695ZM857.834 158.695H859.834V156.695H857.834V158.695ZM857.834 171.855V173.855H859.834V171.855H857.834ZM798.849 171.855V169.855H796.849V171.855H798.849ZM798.849 230.84H796.849V232.84H798.849V230.84ZM869.819 230.84H871.819V228.84H869.819V230.84ZM869.819 242H783.339V246H869.819V242ZM785.339 244V91.72H781.339V244H785.339ZM783.339 93.72H867.234V89.72H783.339V93.72ZM865.25 91.4719L863.605 104.632L867.574 105.128L869.219 91.9681L865.25 91.4719ZM865.589 102.88H799.084V106.88H865.589V102.88ZM797.084 104.88V158.695H801.084V104.88H797.084ZM799.084 160.695H857.834V156.695H799.084V160.695ZM855.834 158.695V171.855H859.834V158.695H855.834ZM857.834 169.855H798.849V173.855H857.834V169.855ZM796.849 171.855V230.84H800.849V171.855H796.849ZM798.849 232.84H869.819V228.84H798.849V232.84ZM867.819 230.84V244H871.819V230.84H867.819ZM999.031 91.72V89.72H997.031V91.72H999.031ZM1014.54 91.72H1016.54V89.72H1014.54V91.72ZM1014.54 244V246H1016.54V244H1014.54ZM997.386 244L995.69 245.06L996.277 246H997.386V244ZM917.016 115.455L918.711 114.395L914.695 107.971L915.017 115.54L917.016 115.455ZM917.956 137.545H919.956V137.502L919.954 137.46L917.956 137.545ZM917.956 244V246H919.956V244H917.956ZM902.446 244H900.446V246H902.446V244ZM902.446 91.72V89.72H900.446V91.72H902.446ZM919.366 91.72L921.06 90.6569L920.472 89.72H919.366V91.72ZM999.736 219.795L998.041 220.858L1001.97 227.111L1001.73 219.733L999.736 219.795ZM999.031 197.235H997.031V197.266L997.032 197.297L999.031 197.235ZM999.031 93.72H1014.54V89.72H999.031V93.72ZM1012.54 91.72V244H1016.54V91.72H1012.54ZM1014.54 242H997.386V246H1014.54V242ZM999.081 242.94L918.711 114.395L915.32 116.515L995.69 245.06L999.081 242.94ZM915.017 115.54L915.957 137.63L919.954 137.46L919.014 115.37L915.017 115.54ZM915.956 137.545V244H919.956V137.545H915.956ZM917.956 242H902.446V246H917.956V242ZM904.446 244V91.72H900.446V244H904.446ZM902.446 93.72H919.366V89.72H902.446V93.72ZM917.671 92.7831L998.041 220.858L1001.43 218.732L921.06 90.6569L917.671 92.7831ZM1001.73 219.733L1001.03 197.173L997.032 197.297L997.737 219.857L1001.73 219.733ZM1001.03 197.235V91.72H997.031V197.235H1001.03Z" fill="url(#paint7_linear_193_8)" mask="url(#path-3-outside-1_193_8)"/>
<defs>
<linearGradient id="paint0_linear_193_8" x1="30.4723" y1="19.3892" x2="111.794" y2="107.432" gradientUnits="userSpaceOnUse">
<stop stop-color="#68C7AE" stop-opacity="0.84"/>
<stop offset="0.649401" stop-color="#3B9484"/>
</linearGradient>
<linearGradient id="paint1_linear_193_8" x1="-17.8954" y1="183.113" x2="251.872" y2="323.423" gradientUnits="userSpaceOnUse">
<stop stop-color="#113E43"/>
<stop offset="0.755" stop-color="#2B0F4E"/>
</linearGradient>
<linearGradient id="paint2_linear_193_8" x1="188.303" y1="14.6631" x2="288.698" y2="244.112" gradientUnits="userSpaceOnUse">
<stop offset="0.21" stop-color="#36A78C"/>
<stop offset="1" stop-color="#5C2589"/>
</linearGradient>
<linearGradient id="paint3_linear_193_8" x1="165.91" y1="49.3835" x2="238.136" y2="242.582" gradientUnits="userSpaceOnUse">
<stop stop-color="#4ADBA9"/>
<stop offset="1" stop-color="#3A2B60"/>
</linearGradient>
<linearGradient id="paint4_linear_193_8" x1="165.91" y1="49.3835" x2="238.136" y2="242.582" gradientUnits="userSpaceOnUse">
<stop stop-color="#4ADBA9"/>
<stop offset="1" stop-color="#3A2B60"/>
</linearGradient>
<linearGradient id="paint5_linear_193_8" x1="165.91" y1="49.3835" x2="238.136" y2="242.582" gradientUnits="userSpaceOnUse">
<stop stop-color="#4ADBA9"/>
<stop offset="1" stop-color="#3A2B60"/>
</linearGradient>
<linearGradient id="paint6_linear_193_8" x1="691.5" y1="28" x2="692" y2="244" gradientUnits="userSpaceOnUse">
<stop stop-color="#409888"/>
<stop offset="1" stop-color="#5E4978"/>
</linearGradient>
<linearGradient id="paint7_linear_193_8" x1="691.5" y1="28" x2="692" y2="244" gradientUnits="userSpaceOnUse">
<stop stop-color="#409888"/>
<stop offset="1" stop-color="#5E4978"/>
</linearGradient>
</defs>
</svg>
