<svg width="1080" height="1080" viewBox="0 0 1080 1080" fill="none" xmlns="http://www.w3.org/2000/svg">
<path d="M26.0918 371.914C-19.1209 540.917 -1.52213 661.87 47.8572 766.118C33.5139 703.976 27.0664 669.94 28.3832 615.728C29.4317 537.46 39.0363 481.289 46.712 459.642C88.5246 341.723 113.859 298.569 128.046 283.047C210.339 172.07 267.773 135.028 378.348 87.0845C493.134 44.2524 560.681 42.4045 683.637 56.3229C783.393 71.7402 838.732 91.3758 935.085 170.255C890.284 124.249 861.059 99.3606 787.31 59.741C691.656 8.35517 623.925 -2.66302 501.495 0.496508C433.908 2.24071 315.343 37.6738 246.037 88.224C126.297 175.56 77.9945 237.46 26.0918 371.914Z" fill="url(#paint0_linear_75_6)"/>
<path d="M923.057 923.344C990.699 853.854 1021.15 809.527 1057.66 717.697C1065.02 697.784 1073.04 662.691 1073.7 659.784C1072.35 665.343 1051.65 724.99 1030.17 759.283C1012.46 787.545 992.363 817.388 984.344 828.211C976.325 839.033 915.834 907.309 857.188 947.839C826.914 968.761 787.188 987.331 691.083 1016.77C625.539 1036.84 548.499 1038.88 459.682 1023.03C405.269 1013.33 350.827 989.812 294.723 952.966C235.771 911.67 206.003 884.971 162.412 827.071C119.312 765.381 103.242 728.439 82.7968 660.161C60.0148 575.041 56.3541 526.378 70.7686 437.425C83.2211 369.36 95.3367 335.206 128.046 283.047C113.859 298.569 88.5246 341.723 46.712 459.642C39.0363 481.289 29.4317 537.46 28.3832 615.728C27.0664 669.94 33.5139 703.976 47.8572 766.118C80.7888 835.642 113.547 877.413 195.06 956.384C236.22 996.26 318.207 1035.39 403.55 1061.2C462.272 1078.96 489.185 1078.75 538.152 1080C613.759 1080 695.666 1060.64 747.788 1038.41C816.305 1009.19 879.526 968.064 923.057 923.344Z" fill="url(#paint1_linear_75_6)" fill-opacity="0.76"/>
<path d="M173.295 371.914C246.038 227.79 368.112 136.076 502.068 103.036C566.74 87.0845 637.243 79.5668 679.055 84.8058C751.798 93.9204 850.315 108.732 935.085 170.255C838.732 91.3758 783.393 71.7402 683.637 56.3229C560.681 42.4045 493.134 44.2524 378.348 87.0845C267.773 135.028 210.339 172.07 128.046 283.047C95.3367 335.206 83.2211 369.36 70.7686 437.425C56.3541 526.378 60.0148 575.041 82.7968 660.161C103.242 728.439 119.312 765.381 162.412 827.071C206.003 884.971 235.771 911.67 294.723 952.966C350.827 989.812 405.269 1013.33 459.682 1023.03C548.499 1038.88 625.539 1036.84 691.083 1016.77C787.188 987.331 826.914 968.761 857.188 947.839C915.834 907.309 976.325 839.033 984.344 828.211C992.363 817.388 1012.46 787.545 1030.17 759.283C1051.65 724.99 1072.35 665.343 1073.7 659.784C1073.72 659.71 1073.73 659.646 1073.74 659.592C1073.74 659.592 1080.15 590.516 1080 541.672C1063.96 635.02 1053.76 687.423 984.344 783.777C910.383 887.58 856.043 917.73 752.37 970.627C648.698 1023.52 487.176 1005.94 403.55 964.929C319.925 923.914 261.502 874.353 195.06 766.118C142.365 659.592 110.863 523.443 173.295 371.914Z" fill="url(#paint2_linear_75_6)" fill-opacity="0.75"/>
<path d="M313.625 904.546C384.951 871.902 455.715 825.422 589.13 735.927L605.309 747.236C749.608 848.098 835.379 908.049 846.305 913.091C850.888 870.367 786.737 694.342 760.962 616.299L998.091 432.299C994.193 426.924 940.866 427.789 852.606 427.742H705.976L724.304 478.441H857.761L746.643 569.017L696.238 427.742H480.875C462.615 479.585 453.368 507.543 436.199 556.485L476.293 584.968C491.979 540.369 511.805 485.277 516.96 481.29H664.163C697.977 586.466 730.081 678.321 774.709 810.553C770.838 817.245 710.341 767.108 646.98 718.837C650.868 700.046 669.01 683.506 712.276 649.909L694.52 601.488L402.405 801.438C414.566 756.738 431.008 722.683 454.528 653.327L415.006 625.413C367.174 745.621 319.351 873.45 313.625 904.546Z" fill="url(#paint3_linear_75_6)"/>
<path d="M576.529 671.556L536.434 701.178C358.301 571.76 277.461 510.319 179.596 427.742H473.429L454.528 475.023C385.011 474.782 335.963 471.036 325.08 477.872C310.188 489.265 576.529 665.859 576.529 671.556Z" fill="url(#paint4_linear_75_6)"/>
<path d="M487.176 418.058H535.862C562.301 350.984 575.662 316.466 593.712 267.098C613.365 327.482 624.953 360.176 645.834 418.058H692.802C633.964 248.255 609.862 173.509 595.43 145.191C580.051 173.94 557.022 234.32 487.176 418.058Z" fill="url(#paint5_linear_75_6)"/>
<path d="M589.13 735.927C455.715 825.422 384.951 871.902 313.625 904.546C319.351 873.45 367.174 745.621 415.006 625.413L454.528 653.327C431.008 722.683 414.566 756.738 402.405 801.438L694.52 601.488L712.276 649.909C669.01 683.506 650.868 700.046 646.98 718.837C710.341 767.108 770.838 817.245 774.709 810.553C730.081 678.321 697.977 586.466 664.163 481.29H516.96C511.805 485.277 491.979 540.369 476.293 584.968L436.199 556.485C453.368 507.543 462.615 479.585 480.875 427.742H696.238L746.643 569.017L857.761 478.441H724.304L705.976 427.742H852.606C940.866 427.789 994.193 426.924 998.091 432.299L760.962 616.299C786.737 694.342 850.888 870.367 846.305 913.091C835.379 908.049 749.608 848.098 605.309 747.236M589.13 735.927L605.309 747.236M589.13 735.927C594.602 739.752 599.995 743.522 605.309 747.236M576.529 671.556L536.434 701.178C358.301 571.76 277.461 510.319 179.596 427.742H473.429L454.528 475.023C385.011 474.782 335.963 471.036 325.08 477.872C310.188 489.265 576.529 665.859 576.529 671.556ZM487.176 418.058H535.862C562.301 350.984 575.662 316.466 593.712 267.098C613.365 327.482 624.953 360.176 645.834 418.058H692.802C633.964 248.255 609.862 173.509 595.43 145.191C580.051 173.94 557.022 234.32 487.176 418.058Z" stroke="black" stroke-linejoin="round"/>
<defs>
<linearGradient id="paint0_linear_75_6" x1="102.844" y1="65.4385" x2="377.305" y2="362.584" gradientUnits="userSpaceOnUse">
<stop stop-color="#68C7AE" stop-opacity="0.84"/>
<stop offset="0.649401" stop-color="#3B9484"/>
</linearGradient>
<linearGradient id="paint1_linear_75_6" x1="-60.3968" y1="618.008" x2="850.068" y2="1091.55" gradientUnits="userSpaceOnUse">
<stop stop-color="#113E43"/>
<stop offset="0.755" stop-color="#2B0F4E"/>
</linearGradient>
<linearGradient id="paint2_linear_75_6" x1="635.524" y1="49.488" x2="974.357" y2="823.878" gradientUnits="userSpaceOnUse">
<stop offset="0.21" stop-color="#36A78C"/>
<stop offset="1" stop-color="#5C2589"/>
</linearGradient>
<linearGradient id="paint3_linear_75_6" x1="559.943" y1="166.669" x2="803.706" y2="818.714" gradientUnits="userSpaceOnUse">
<stop stop-color="#4ADBA9"/>
<stop offset="1" stop-color="#3A2B60"/>
</linearGradient>
<linearGradient id="paint4_linear_75_6" x1="559.943" y1="166.669" x2="803.706" y2="818.714" gradientUnits="userSpaceOnUse">
<stop stop-color="#4ADBA9"/>
<stop offset="1" stop-color="#3A2B60"/>
</linearGradient>
<linearGradient id="paint5_linear_75_6" x1="559.943" y1="166.669" x2="803.706" y2="818.714" gradientUnits="userSpaceOnUse">
<stop stop-color="#4ADBA9"/>
<stop offset="1" stop-color="#3A2B60"/>
</linearGradient>
</defs>
</svg>
